<?xml version="1.0" standalone="no"?>
<!DOCTYPE svg PUBLIC "-//W3C//DTD SVG 20010904//EN"
 "http://www.w3.org/TR/2001/REC-SVG-20010904/DTD/svg10.dtd">
<svg version="1.0" xmlns="http://www.w3.org/2000/svg"
 width="839.000000pt" height="839.000000pt" viewBox="0 0 839.000000 839.000000"
 preserveAspectRatio="xMidYMid meet">
<metadata>
Created by potrace 1.14, written by Peter Selinger 2001-2017
</metadata>
<g transform="translate(0.000000,839.000000) scale(0.100000,-0.100000)"
fill="#000000" stroke="none">
<path d="M2035 8353 c-44 -14 -90 -27 -101 -30 -23 -5 -23 3 -10 -178 4 -49 8
-142 11 -205 5 -139 14 -266 21 -300 11 -55 13 -80 19 -210 9 -215 23 -435 30
-460 7 -23 13 -85 20 -195 4 -55 9 -118 10 -140 2 -22 6 -87 10 -145 3 -58 8
-120 10 -137 l5 -33 -53 20 c-116 42 -185 54 -317 55 -190 0 -309 -29 -470
-117 -245 -134 -414 -369 -475 -663 -4 -16 -8 -82 -10 -145 -5 -202 40 -370
146 -537 39 -63 58 -87 112 -145 32 -36 32 -36 7 -68 -11 -14 -20 -31 -20 -37
0 -7 -4 -13 -9 -13 -5 0 -13 -10 -17 -22 -3 -13 -12 -30 -19 -38 -35 -41 -185
-366 -241 -522 -15 -40 -31 -84 -37 -98 -5 -14 -11 -29 -13 -35 -2 -5 -15 -44
-29 -85 -15 -41 -28 -82 -30 -90 -2 -8 -13 -44 -25 -80 -26 -79 -150 -507
-156 -537 -2 -12 -20 -79 -40 -150 -19 -70 -37 -132 -38 -138 -1 -5 -9 -30
-16 -55 -7 -25 -14 -50 -16 -56 -1 -6 -10 -38 -19 -70 -9 -33 -18 -66 -20 -74
-2 -8 -20 -76 -40 -150 -20 -74 -39 -146 -41 -160 -3 -14 -9 -38 -14 -55 -5
-16 -16 -66 -24 -110 -9 -44 -19 -91 -21 -105 -3 -14 -7 -38 -9 -55 -2 -16 -7
-46 -10 -65 -13 -74 -18 -140 -21 -285 -3 -150 6 -240 39 -380 21 -94 92 -246
157 -340 47 -66 195 -220 249 -258 114 -79 177 -119 250 -156 47 -24 90 -47
95 -51 12 -9 256 -103 310 -120 22 -7 49 -16 60 -21 26 -10 156 -48 181 -52
10 -2 39 -9 64 -16 25 -7 52 -15 61 -16 9 -2 61 -13 115 -25 55 -12 108 -23
119 -25 11 -2 88 -14 170 -28 83 -15 170 -29 195 -32 25 -3 56 -8 70 -10 14
-2 53 -7 88 -10 35 -4 71 -8 81 -10 10 -2 55 -6 100 -10 44 -3 89 -8 98 -9 10
-2 56 -7 103 -10 47 -4 105 -9 130 -11 86 -7 278 -18 575 -31 348 -16 1635 -8
1850 11 28 2 102 7 165 11 63 3 131 7 150 9 19 2 76 6 125 10 50 3 104 8 120
10 17 1 64 6 105 9 41 4 86 9 100 11 14 2 50 6 80 10 30 3 73 8 95 11 22 3 51
7 65 9 28 4 102 15 140 20 56 9 206 34 226 39 12 2 38 7 57 10 20 3 78 15 129
27 51 11 101 22 111 24 10 2 52 14 95 25 42 12 84 23 93 25 35 7 245 79 254
86 5 5 15 9 22 9 40 0 391 177 401 202 2 4 9 8 15 8 17 0 179 131 224 181 21
23 43 47 49 53 52 55 177 272 188 329 2 7 10 37 19 67 16 55 21 82 35 175 14
100 6 426 -13 527 -3 13 -7 41 -10 63 -6 46 -11 80 -26 151 -5 28 -12 64 -15
80 -3 16 -16 81 -30 144 -15 63 -27 121 -29 130 -2 8 -15 65 -29 125 -14 61
-28 121 -30 135 -4 21 -29 133 -40 180 -2 8 -14 62 -26 120 -12 58 -24 114
-27 125 -2 11 -6 31 -9 45 -3 14 -9 41 -14 60 -5 19 -12 46 -14 60 -60 273
-185 686 -247 814 -10 22 -19 43 -19 48 0 4 -12 33 -27 65 -14 32 -27 60 -27
63 -3 9 -96 194 -109 215 -45 73 -61 101 -62 105 0 3 -23 38 -50 79 -41 62
-46 75 -34 85 8 6 26 27 39 46 13 19 27 37 30 40 17 13 98 169 105 202 2 9 8
25 14 36 5 10 19 63 30 118 54 270 -13 562 -181 776 -42 54 -167 178 -180 178
-4 0 -13 6 -20 14 -21 21 -157 93 -218 115 -125 45 -189 56 -335 55 -117 0
-146 -4 -230 -25 -113 -29 -238 -89 -335 -162 -58 -44 -190 -175 -190 -190 0
-5 -6 -15 -12 -22 -24 -27 -33 -40 -60 -90 -15 -27 -33 -50 -40 -50 -7 -1 -33
5 -58 13 -25 7 -53 15 -63 17 -10 2 -26 6 -35 9 -9 3 -28 7 -42 10 -14 3 -70
14 -125 25 -153 30 -225 42 -355 57 -30 3 -57 7 -60 9 -3 2 -46 6 -95 10 -50
4 -101 8 -114 10 -176 29 -981 26 -1315 -4 -72 -6 -79 -5 -91 14 -34 55 -125
219 -125 226 0 4 -3 9 -7 11 -5 2 -19 23 -32 48 -54 103 -66 125 -72 130 -3 3
-25 41 -49 85 -24 44 -56 102 -72 128 -15 26 -28 51 -28 54 0 4 -6 14 -14 22
-7 9 -26 41 -42 71 -16 30 -31 57 -34 60 -3 3 -11 16 -17 30 -7 14 -26 48 -42
75 -34 57 -51 88 -111 200 -75 141 -193 349 -215 380 -23 31 -76 125 -133 235
-18 36 -41 79 -51 95 -10 17 -31 55 -48 85 -55 101 -95 165 -104 168 -5 2 -9
7 -9 12 0 19 -132 240 -143 239 -7 0 -48 -12 -92 -26z"/>
</g>
</svg>
